<!DOCTYPE svg PUBLIC "-//W3C//DTD SVG 20010904//EN" "http://www.w3.org/TR/2001/REC-SVG-20010904/DTD/svg10.dtd">
<svg version="1.0" xmlns="http://www.w3.org/2000/svg" width="128px" height="98px" viewBox="0 0 1280 980" preserveAspectRatio="xMidYMid meet">
<g id="layer101" fill="#ffffff" stroke="none">
 <path d="M82 847 c-22 -26 -35 -120 -28 -202 6 -84 27 -159 66 -234 21 -43 21 -45 6 -130 -21 -112 -21 -204 -1 -221 20 -17 106 6 212 55 61 28 79 32 100 24 91 -34 249 -40 354 -13 l68 17 79 -36 c113 -52 197 -74 217 -57 20 17 20 98 -2 227 l-17 101 32 69 c43 94 55 158 50 280 -3 89 -6 107 -23 119 -27 20 -1097 21 -1113 1z m913 -112 c0 -96 -21 -157 -71 -209 -54 -56 -119 -71 -294 -70 -125 0 -153 3 -202 23 -101 39 -148 122 -148 263 l0 78 358 -2 357 -3 0 -80z m-6 -338 c15 -19 -10 -53 -33 -44 -16 6 -22 38 -9 50 10 11 30 8 42 -6z m-190 -11 c17 -20 2 -48 -23 -44 -24 3 -34 37 -14 49 18 12 24 11 37 -5z m99 -12 c4 -26 -26 -40 -45 -21 -8 7 -11 21 -7 31 9 24 48 17 52 -10z"/>
 <path d="M617 752 c-21 -23 -13 -32 30 -32 34 0 43 16 21 38 -17 17 -32 15 -51 -6z"/>
 <path d="M407 683 c-21 -20 -1 -103 24 -103 32 0 52 73 27 98 -13 13 -41 16 -51 5z"/>
 <path d="M826 674 c-30 -30 -8 -90 30 -83 34 7 28 99 -7 99 -4 0 -15 -7 -23 -16z"/>
 </g>

</svg>